<?xml version="1.0" encoding="utf-8"?>
<!-- Generator: Adobe Illustrator 19.0.0, SVG Export Plug-In . SVG Version: 6.00 Build 0)  -->
<svg version="1.1" id="图层_1" xmlns="http://www.w3.org/2000/svg" xmlns:xlink="http://www.w3.org/1999/xlink" x="0px" y="0px"
	 viewBox="0 0 1417.3 1417.3" style="enable-background:new 0 0 1417.3 1417.3;" xml:space="preserve">
<style type="text/css">
	.st0{fill:#FFFFFF;stroke:#000000;stroke-miterlimit:10;}
</style>
<polygon id="XMLID_1_" class="st0" points="302.5,461 248.5,426.6 189.5,451.5 205.5,389.5 163.6,341.1 227.5,337.3 260.5,282.4 
	284,342 346.4,356.4 297,397.2 "/>
<polygon id="XMLID_2_" class="st0" points="255,643.5 222.5,607.7 174.6,614.1 198.6,572.2 177.7,528.6 225,538.5 260,505.1 
	265.2,553.2 307.7,576.1 263.7,595.9 "/>
<polygon id="XMLID_3_" class="st0" points="410,505.1 371,482.4 330.2,501.7 339.8,457.6 308.9,424.7 353.8,420.2 375.4,380.6 
	393.6,421.9 437.9,430.3 404.3,460.4 "/>
<polygon id="XMLID_4_" class="st0" points="585,543.5 554.4,530.2 526,547.9 529.2,514.6 503.6,493.2 536.3,485.9 548.8,455 
	565.7,483.7 599,486.1 576.9,511.1 "/>
<polygon id="XMLID_5_" class="st0" points="467.5,626 434.7,603.9 397.9,618.4 408.8,580.4 383.6,549.9 423.2,548.5 444.4,515.1 
	458,552.3 496.2,562.2 465.1,586.5 "/>
<polygon id="XMLID_6_" class="st0" points="333.3,686 311.9,660.5 278.8,663.8 296.3,635.5 283,605 315.3,613 340.2,590.9 
	342.6,624.1 371.3,641 340.5,653.5 "/>
</svg>
